<svg width="64" height="64" viewBox="0 0 64 64" fill="none" xmlns="http://www.w3.org/2000/svg">
<rect width="64" height="64" rx="12" fill="#090808"/>
<g filter="url(#filter0_d)">
<g clip-path="url(#clip0)">
<path d="M38.25 41.2917C38.25 40.6583 38.3875 40.1833 38.525 39.55C38.6625 39.075 38.3875 38.7583 38.1125 38.6C37.7 38.4417 37.15 38.2833 36.7375 38.125C35.5 37.3333 34.125 37.3333 32.8875 37.9667H32.75C32.475 38.125 32.3375 38.6 32.475 38.9167C32.75 39.7083 32.8875 40.5 32.8875 41.2917C32.8875 43.825 32.2 47.3083 30.9625 48.575C30.6875 48.8917 30.6875 49.3667 30.9625 49.6833C30.9625 49.8417 31.2375 50 31.375 50H39.625C40.0375 50 40.3125 49.6833 40.3125 49.2083C40.3125 49.05 40.175 48.7333 40.175 48.7333C38.9375 47.3083 38.25 43.825 38.25 41.2917Z" fill="#747474"/>
<path d="M44.85 21.6584C43.475 20.5501 41.9625 19.9167 40.3125 19.9167C39.9 19.9167 39.625 19.6001 39.625 19.1251C39.625 18.6501 39.9 18.3334 40.3125 18.3334C41.275 18.3334 42.2375 18.4917 43.0625 18.8084C43.475 18.9667 43.75 18.8084 43.8875 18.3334C43.8875 18.1751 43.8875 17.8584 43.8875 17.7001C41.275 12.3167 35.5 10.4167 30.825 13.4251C28.35 15.0084 26.5625 17.8584 26.0125 21.0251C25.875 21.5001 26.15 21.8167 26.5625 21.9751C26.7 21.9751 26.8375 21.9751 26.975 21.9751C27.6625 21.6584 28.4875 21.5001 29.3125 21.5001C29.725 21.5001 30 21.8167 30 22.2917C30 22.7667 29.725 23.0834 29.3125 23.0834C27.525 23.0834 25.875 23.8751 24.6375 25.4584C22.4375 28.4667 22.575 32.9001 25.1875 35.5917C26.0125 36.5417 27.1125 37.0167 28.35 37.3334C28.625 37.3334 29.0375 37.3334 29.3125 37.3334C30.4125 37.3334 31.375 37.0167 32.3375 36.3834C33.85 35.5917 35.775 35.5917 37.2875 36.5417C41.1375 38.6 45.5375 36.5417 47.325 32.2667C48.7 28.4667 47.7375 24.0334 44.85 21.6584Z" fill="#747474"/>
</g>
</g>
<g filter="url(#filter1_d)">
<g clip-path="url(#clip1)">
<path d="M34.6667 42.5208C34.6667 41.9042 34.8 41.4417 34.9333 40.825C35.0667 40.3625 34.8 40.0542 34.5333 39.9C34.1333 39.7458 33.6 39.5917 33.2 39.4375C32 38.6667 30.6667 38.6667 29.4667 39.2833H29.3333C29.0667 39.4375 28.9333 39.9 29.0667 40.2083C29.3333 40.9792 29.4667 41.75 29.4667 42.5208C29.4667 44.9875 28.8 48.3792 27.6 49.6125C27.3333 49.9208 27.3333 50.3833 27.6 50.6917C27.6 50.8458 27.8667 51 28 51H36C36.4 51 36.6667 50.6917 36.6667 50.2292C36.6667 50.075 36.5333 49.7667 36.5333 49.7667C35.3333 48.3792 34.6667 44.9875 34.6667 42.5208Z" fill="#834AFB" fill-opacity="0.83"/>
<path d="M41.0667 23.4042C39.7333 22.325 38.2667 21.7083 36.6667 21.7083C36.2667 21.7083 36 21.4 36 20.9375C36 20.475 36.2667 20.1667 36.6667 20.1667C37.6 20.1667 38.5333 20.3208 39.3333 20.6292C39.7333 20.7833 40 20.6292 40.1333 20.1667C40.1333 20.0125 40.1333 19.7042 40.1333 19.55C37.6 14.3083 32 12.4583 27.4667 15.3875C25.0667 16.9292 23.3333 19.7042 22.8 22.7875C22.6667 23.25 22.9333 23.5583 23.3333 23.7125C23.4667 23.7125 23.6 23.7125 23.7333 23.7125C24.4 23.4042 25.2 23.25 26 23.25C26.4 23.25 26.6667 23.5583 26.6667 24.0208C26.6667 24.4833 26.4 24.7917 26 24.7917C24.2667 24.7917 22.6667 25.5625 21.4667 27.1042C19.3333 30.0333 19.4667 34.35 22 36.9708C22.8 37.8958 23.8667 38.3583 25.0667 38.6667C25.3333 38.6667 25.7333 38.6667 26 38.6667C27.0667 38.6667 28 38.3583 28.9333 37.7417C30.4 36.9708 32.2667 36.9708 33.7333 37.8958C37.4667 39.9 41.7333 37.8958 43.4667 33.7333C44.8 30.0333 43.8667 25.7167 41.0667 23.4042Z" fill="#834AFB" fill-opacity="0.83"/>
</g>
</g>
<g filter="url(#filter2_d)">
<g clip-path="url(#clip2)">
<path d="M30.6667 44.75C30.6667 44.15 30.8 43.7 30.9333 43.1C31.0667 42.65 30.8 42.35 30.5333 42.2C30.1333 42.05 29.6 41.9 29.2 41.75C28 41 26.6667 41 25.4667 41.6H25.3333C25.0667 41.75 24.9333 42.2 25.0667 42.5C25.3333 43.25 25.4667 44 25.4667 44.75C25.4667 47.15 24.8 50.45 23.6 51.65C23.3333 51.95 23.3333 52.4 23.6 52.7C23.6 52.85 23.8667 53 24 53H32C32.4 53 32.6667 52.7 32.6667 52.25C32.6667 52.1 32.5333 51.8 32.5333 51.8C31.3333 50.45 30.6667 47.15 30.6667 44.75Z" fill="#FE3C99" fill-opacity="0.53"/>
<path d="M37.0667 26.15C35.7333 25.1 34.2667 24.5 32.6667 24.5C32.2667 24.5 32 24.2 32 23.75C32 23.3 32.2667 23 32.6667 23C33.6 23 34.5333 23.15 35.3333 23.45C35.7333 23.6 36 23.45 36.1333 23C36.1333 22.85 36.1333 22.55 36.1333 22.4C33.6 17.3 28 15.5 23.4667 18.35C21.0667 19.85 19.3333 22.55 18.8 25.55C18.6667 26 18.9333 26.3 19.3333 26.45C19.4667 26.45 19.6 26.45 19.7333 26.45C20.4 26.15 21.2 26 22 26C22.4 26 22.6667 26.3 22.6667 26.75C22.6667 27.2 22.4 27.5 22 27.5C20.2667 27.5 18.6667 28.25 17.4667 29.75C15.3333 32.6 15.4667 36.8 18 39.35C18.8 40.25 19.8667 40.7 21.0667 41C21.3333 41 21.7333 41 22 41C23.0667 41 24 40.7 24.9333 40.1C26.4 39.35 28.2667 39.35 29.7333 40.25C33.4667 42.2 37.7333 40.25 39.4667 36.2C40.8 32.6 39.8667 28.4 37.0667 26.15Z" fill="#FE3C99" fill-opacity="0.53"/>
</g>
</g>
<defs>
<filter id="filter0_d" x="15" y="8" width="41" height="46" filterUnits="userSpaceOnUse" color-interpolation-filters="sRGB">
<feFlood flood-opacity="0" result="BackgroundImageFix"/>
<feColorMatrix in="SourceAlpha" type="matrix" values="0 0 0 0 0 0 0 0 0 0 0 0 0 0 0 0 0 0 127 0"/>
<feOffset/>
<feGaussianBlur stdDeviation="2"/>
<feColorMatrix type="matrix" values="0 0 0 0 0.257517 0 0 0 0 0.476775 0 0 0 0 0.679167 0 0 0 1 0"/>
<feBlend mode="normal" in2="BackgroundImageFix" result="effect1_dropShadow"/>
<feBlend mode="normal" in="SourceGraphic" in2="effect1_dropShadow" result="shape"/>
</filter>
<filter id="filter1_d" x="12" y="10" width="40" height="45" filterUnits="userSpaceOnUse" color-interpolation-filters="sRGB">
<feFlood flood-opacity="0" result="BackgroundImageFix"/>
<feColorMatrix in="SourceAlpha" type="matrix" values="0 0 0 0 0 0 0 0 0 0 0 0 0 0 0 0 0 0 127 0"/>
<feOffset/>
<feGaussianBlur stdDeviation="2"/>
<feColorMatrix type="matrix" values="0 0 0 0 0.257517 0 0 0 0 0.476775 0 0 0 0 0.679167 0 0 0 1 0"/>
<feBlend mode="normal" in2="BackgroundImageFix" result="effect1_dropShadow"/>
<feBlend mode="normal" in="SourceGraphic" in2="effect1_dropShadow" result="shape"/>
</filter>
<filter id="filter2_d" x="8" y="13" width="40" height="44" filterUnits="userSpaceOnUse" color-interpolation-filters="sRGB">
<feFlood flood-opacity="0" result="BackgroundImageFix"/>
<feColorMatrix in="SourceAlpha" type="matrix" values="0 0 0 0 0 0 0 0 0 0 0 0 0 0 0 0 0 0 127 0"/>
<feOffset/>
<feGaussianBlur stdDeviation="2"/>
<feColorMatrix type="matrix" values="0 0 0 0 0.257517 0 0 0 0 0.476775 0 0 0 0 0.679167 0 0 0 1 0"/>
<feBlend mode="normal" in2="BackgroundImageFix" result="effect1_dropShadow"/>
<feBlend mode="normal" in="SourceGraphic" in2="effect1_dropShadow" result="shape"/>
</filter>
<clipPath id="clip0">
<rect x="19" y="12" width="33" height="38" fill="white"/>
</clipPath>
<clipPath id="clip1">
<rect x="16" y="14" width="32" height="37" fill="white"/>
</clipPath>
<clipPath id="clip2">
<rect x="12" y="17" width="32" height="36" fill="white"/>
</clipPath>
</defs>
</svg>
